<svg xmlns="http://www.w3.org/2000/svg" xmlns:xlink="http://www.w3.org/1999/xlink" xmlns:xodm="http://www.corel.com/coreldraw/odm/2003" xml:space="preserve" width="29.6333mm" height="8.4667mm" style="shape-rendering:geometricPrecision; text-rendering:geometricPrecision; image-rendering:optimizeQuality; fill-rule:evenodd; clip-rule:evenodd" viewBox="0 0 12.3 3.51"> <defs> <style type="text/css"> .fil5 {fill:none} .fil1 {fill:#0C264B} .fil3 {fill:#9E1B2C} .fil2 {fill:#B99751} .fil4 {fill:white} .fil0 {fill:#0C264B;fill-rule:nonzero} </style> </defs> <g id="Camada_x0020_2"> <metadata id="CorelCorpID_0Corel-Layer"></metadata> <g id="_2203138587200"> <g> <g> <path class="fil0" d="M4.79 1.98c0.03,0 0.07,0.01 0.1,0.02 0.03,0.01 0.06,0.02 0.07,0.03l0.02 0.02 -0.06 0.12c-0,-0 -0.01,-0.01 -0.02,-0.01 -0.01,-0 -0.02,-0.01 -0.05,-0.02 -0.02,-0.01 -0.04,-0.01 -0.06,-0.01 -0.02,0 -0.04,0.01 -0.06,0.02 -0.01,0.01 -0.02,0.02 -0.02,0.04 0,0.01 0,0.02 0.01,0.02 0.01,0.01 0.02,0.02 0.03,0.02 0.02,0.01 0.03,0.02 0.04,0.02 0.01,0.01 0.03,0.01 0.05,0.02 0.04,0.02 0.08,0.04 0.11,0.07 0.03,0.03 0.04,0.06 0.04,0.1 0,0.04 -0.01,0.07 -0.02,0.1 -0.01,0.03 -0.03,0.05 -0.05,0.06 -0.02,0.02 -0.05,0.03 -0.08,0.03 -0.03,0.01 -0.06,0.01 -0.09,0.01 -0.03,0 -0.06,-0 -0.08,-0.01 -0.03,-0.01 -0.05,-0.01 -0.07,-0.02 -0.02,-0.01 -0.03,-0.02 -0.05,-0.03 -0.01,-0.01 -0.03,-0.02 -0.03,-0.02l-0.01 -0.01 0.07 -0.12c0.01,0.01 0.01,0.01 0.03,0.02 0.01,0.01 0.03,0.02 0.06,0.03 0.03,0.01 0.05,0.02 0.07,0.02 0.06,0 0.09,-0.02 0.09,-0.06 0,-0.01 -0,-0.02 -0.01,-0.02 -0,-0.01 -0.01,-0.02 -0.02,-0.02 -0.01,-0.01 -0.02,-0.01 -0.03,-0.02 -0.01,-0 -0.02,-0.01 -0.04,-0.02 -0.02,-0.01 -0.03,-0.02 -0.04,-0.02 -0.04,-0.02 -0.07,-0.04 -0.09,-0.07 -0.02,-0.03 -0.03,-0.06 -0.03,-0.09 0,-0.06 0.02,-0.1 0.06,-0.14 0.04,-0.04 0.09,-0.05 0.15,-0.05z"></path> <path class="fil0" d="M5.45 1.99l0.26 0.64 -0.16 0 -0.05 -0.13 -0.24 0 -0.05 0.13 -0.16 0 0.26 -0.64 0.14 0zm0 0.38l-0.07 -0.19 -0 0 -0.07 0.19 0.14 0z"></path> <path class="fil0" d="M5.76 2.31c0,-0.09 0.03,-0.17 0.09,-0.24 0.06,-0.06 0.14,-0.1 0.23,-0.1 0.09,0 0.17,0.03 0.23,0.1 0.06,0.06 0.09,0.14 0.09,0.24 0,0.09 -0.03,0.17 -0.09,0.24 -0.06,0.06 -0.14,0.1 -0.23,0.1 -0.09,0 -0.17,-0.03 -0.23,-0.1 -0.06,-0.06 -0.09,-0.14 -0.09,-0.24zm0.16 0c0,0.03 0.01,0.06 0.02,0.09 0.01,0.03 0.03,0.05 0.05,0.07 0.03,0.02 0.06,0.03 0.1,0.03 0.05,0 0.1,-0.02 0.12,-0.06 0.03,-0.04 0.04,-0.08 0.04,-0.14 0,-0.05 -0.01,-0.1 -0.04,-0.13 -0.03,-0.04 -0.07,-0.06 -0.12,-0.06 -0.05,0 -0.09,0.02 -0.12,0.06 -0.03,0.04 -0.04,0.08 -0.04,0.13z"></path> <path class="fil0" d="M7.38 2.28l0 0.14c-0.02,0.08 -0.05,0.13 -0.11,0.17 -0.06,0.04 -0.12,0.06 -0.19,0.06 -0.09,0 -0.16,-0.03 -0.22,-0.1 -0.06,-0.06 -0.09,-0.14 -0.09,-0.23 0,-0.09 0.03,-0.17 0.09,-0.24 0.06,-0.06 0.13,-0.1 0.22,-0.1 0.1,0 0.19,0.04 0.25,0.11l-0.1 0.1c-0.03,-0.05 -0.08,-0.08 -0.14,-0.08 -0.05,0 -0.08,0.02 -0.12,0.06 -0.03,0.04 -0.05,0.09 -0.05,0.14 0,0.05 0.02,0.1 0.05,0.14 0.03,0.04 0.07,0.06 0.12,0.06 0.04,0 0.07,-0.01 0.1,-0.03 0.03,-0.02 0.04,-0.05 0.04,-0.09l-0.15 0 0 -0.11 0.3 0z"></path> <path class="fil0" d="M7.47 2.31c0,-0.09 0.03,-0.17 0.09,-0.24 0.06,-0.06 0.14,-0.1 0.23,-0.1 0.09,0 0.17,0.03 0.23,0.1 0.06,0.06 0.09,0.14 0.09,0.24 0,0.09 -0.03,0.17 -0.09,0.24 -0.06,0.06 -0.14,0.1 -0.23,0.1 -0.09,0 -0.17,-0.03 -0.23,-0.1 -0.06,-0.06 -0.09,-0.14 -0.09,-0.24zm0.16 0c0,0.03 0.01,0.06 0.02,0.09 0.01,0.03 0.03,0.05 0.05,0.07 0.03,0.02 0.06,0.03 0.1,0.03 0.05,0 0.1,-0.02 0.12,-0.06 0.03,-0.04 0.04,-0.08 0.04,-0.14 0,-0.05 -0.01,-0.1 -0.04,-0.13 -0.03,-0.04 -0.07,-0.06 -0.12,-0.06 -0.05,0 -0.09,0.02 -0.12,0.06 -0.03,0.04 -0.04,0.08 -0.04,0.13z"></path> <polygon class="fil0" points="8.38,2.24 8.38,2.64 8.24,2.64 8.24,1.99 8.38,1.99 8.64,2.39 8.64,2.39 8.64,1.99 8.79,1.99 8.79,2.64 8.64,2.64 8.39,2.24 "></polygon> <path class="fil0" d="M9.28 2.5c0.02,0 0.04,-0 0.06,-0.01 0.02,-0.01 0.04,-0.01 0.05,-0.02l0.01 -0.01 0.06 0.12c-0,0 -0,0 -0.01,0.01 -0,0 -0.01,0.01 -0.03,0.01 -0.01,0.01 -0.03,0.01 -0.04,0.02 -0.02,0.01 -0.03,0.01 -0.06,0.01 -0.02,0 -0.05,0.01 -0.08,0.01 -0.02,0 -0.03,-0 -0.05,-0l-0.01 0.04c0.02,0 0.05,0.01 0.07,0.02 0.02,0.01 0.03,0.03 0.03,0.06 0,0.03 -0.01,0.05 -0.03,0.07 -0.02,0.02 -0.05,0.03 -0.09,0.03 -0.02,0 -0.04,-0.01 -0.06,-0.02 -0.02,-0.01 -0.03,-0.02 -0.04,-0.03l-0.01 -0.02 0.06 -0.04c0,0 0.01,0.01 0.01,0.01 0,0 0.01,0.01 0.02,0.02 0.01,0.01 0.02,0.01 0.03,0.01 0.01,0 0.02,-0 0.03,-0.01 0.01,-0.01 0.01,-0.01 0.01,-0.02 0,-0.01 -0,-0.02 -0.01,-0.03 -0.01,-0.01 -0.02,-0.01 -0.03,-0.01 -0.01,0 -0.02,0 -0.02,0 -0.01,0 -0.01,0 -0.01,0l-0 0 -0.01 -0.01 0.03 -0.1c-0.07,-0.02 -0.13,-0.06 -0.18,-0.12 -0.05,-0.06 -0.07,-0.12 -0.07,-0.2 0,-0.05 0.01,-0.09 0.03,-0.13 0.02,-0.04 0.04,-0.08 0.08,-0.11 0.03,-0.03 0.07,-0.05 0.11,-0.07 0.04,-0.02 0.09,-0.03 0.13,-0.03 0.04,0 0.08,0 0.11,0.01 0.04,0.01 0.06,0.02 0.07,0.03l0.02 0.01 -0.06 0.12c-0,-0 -0.01,-0.01 -0.02,-0.01 -0.01,-0 -0.02,-0.01 -0.04,-0.02 -0.02,-0.01 -0.04,-0.01 -0.07,-0.01 -0.04,0 -0.07,0.01 -0.09,0.02 -0.03,0.01 -0.05,0.03 -0.07,0.05 -0.02,0.02 -0.03,0.04 -0.04,0.06 -0.01,0.02 -0.01,0.04 -0.01,0.07 0,0.05 0.02,0.09 0.05,0.13 0.04,0.04 0.09,0.06 0.16,0.06z"></path> <path class="fil0" d="M9.9 1.99l0.26 0.64 -0.16 0 -0.05 -0.13 -0.24 0 -0.05 0.13 -0.16 0 0.26 -0.64 0.14 0zm0 0.38l-0.07 -0.19 -0 0 -0.07 0.19 0.14 0z"></path> <polygon class="fil0" points="10.39,1.99 10.39,2.51 10.61,2.51 10.61,2.64 10.24,2.64 10.24,1.99 "></polygon> <path class="fil0" d="M10.71 2.31c0,-0.09 0.03,-0.17 0.09,-0.24 0.06,-0.06 0.14,-0.1 0.23,-0.1 0.09,0 0.17,0.03 0.23,0.1 0.06,0.06 0.09,0.14 0.09,0.24 0,0.09 -0.03,0.17 -0.09,0.24 -0.06,0.06 -0.14,0.1 -0.23,0.1 -0.09,0 -0.17,-0.03 -0.23,-0.1 -0.06,-0.06 -0.09,-0.14 -0.09,-0.24zm0.16 0c0,0.03 0.01,0.06 0.02,0.09 0.01,0.03 0.03,0.05 0.05,0.07 0.03,0.02 0.06,0.03 0.1,0.03 0.05,0 0.1,-0.02 0.12,-0.06 0.03,-0.04 0.04,-0.08 0.04,-0.14 0,-0.05 -0.01,-0.1 -0.04,-0.13 -0.03,-0.04 -0.07,-0.06 -0.12,-0.06 -0.05,0 -0.09,0.02 -0.12,0.06 -0.03,0.04 -0.04,0.08 -0.04,0.13z"></path> <path class="fil0" d="M5.32 1.83c-0.01,0 -0.02,0 -0.03,0.01 -0.01,0.01 -0.02,0.01 -0.03,0.03l0 -0.07c0.02,-0.02 0.04,-0.03 0.07,-0.03 0.01,0 0.03,0 0.04,0 0.01,0 0.03,0.01 0.04,0.01 0.02,0.01 0.05,0.02 0.07,0.02 0.01,0 0.02,-0 0.03,-0.01 0.01,-0.01 0.02,-0.01 0.03,-0.03l0 0.07c-0.02,0.02 -0.04,0.03 -0.07,0.03 -0.01,0 -0.02,-0 -0.04,-0 -0.01,-0 -0.03,-0.01 -0.04,-0.01 -0.03,-0.01 -0.05,-0.02 -0.07,-0.02z"></path> </g> <g> <path class="fil0" d="M4.89 1.41c0.02,0 0.04,-0 0.06,-0.01 0.02,-0.01 0.04,-0.01 0.05,-0.02l0.01 -0.01 0.06 0.12c-0,0 -0,0 -0.01,0.01 -0,0 -0.01,0.01 -0.03,0.01 -0.01,0.01 -0.03,0.01 -0.04,0.02 -0.02,0.01 -0.03,0.01 -0.06,0.01 -0.02,0 -0.05,0.01 -0.08,0.01 -0.06,0 -0.12,-0.01 -0.17,-0.04 -0.05,-0.03 -0.1,-0.07 -0.13,-0.12 -0.03,-0.05 -0.05,-0.11 -0.05,-0.17 0,-0.05 0.01,-0.09 0.03,-0.13 0.02,-0.04 0.04,-0.08 0.08,-0.11 0.03,-0.03 0.07,-0.05 0.11,-0.07 0.04,-0.02 0.09,-0.03 0.13,-0.03 0.04,0 0.08,0 0.11,0.01 0.03,0.01 0.06,0.02 0.07,0.03l0.02 0.01 -0.06 0.12c-0,-0 -0.01,-0.01 -0.02,-0.01 -0.01,-0 -0.02,-0.01 -0.04,-0.02 -0.02,-0.01 -0.04,-0.01 -0.07,-0.01 -0.04,0 -0.07,0.01 -0.09,0.02 -0.03,0.01 -0.05,0.03 -0.07,0.05 -0.02,0.02 -0.03,0.04 -0.04,0.06 -0.01,0.02 -0.01,0.04 -0.01,0.07 0,0.05 0.02,0.09 0.05,0.13 0.04,0.04 0.09,0.06 0.16,0.06z"></path> <path class="fil0" d="M5.16 1.22c0,-0.09 0.03,-0.17 0.09,-0.24 0.06,-0.06 0.14,-0.1 0.23,-0.1 0.09,0 0.17,0.03 0.23,0.1 0.06,0.06 0.09,0.14 0.09,0.24 0,0.09 -0.03,0.17 -0.09,0.24 -0.06,0.06 -0.14,0.1 -0.23,0.1 -0.09,0 -0.17,-0.03 -0.23,-0.1 -0.06,-0.06 -0.09,-0.14 -0.09,-0.24zm0.16 0c0,0.03 0.01,0.06 0.02,0.09 0.01,0.03 0.03,0.05 0.05,0.07 0.03,0.02 0.06,0.03 0.1,0.03 0.05,0 0.1,-0.02 0.12,-0.06 0.03,-0.04 0.04,-0.08 0.04,-0.14 0,-0.05 -0.01,-0.1 -0.04,-0.13 -0.03,-0.04 -0.07,-0.06 -0.12,-0.06 -0.05,0 -0.09,0.02 -0.12,0.06 -0.03,0.04 -0.04,0.08 -0.04,0.13z"></path> <polygon class="fil0" points="6.07,0.9 6.07,1.42 6.3,1.42 6.3,1.55 5.93,1.55 5.93,0.9 "></polygon> <path class="fil0" d="M6.51 0.79l0.16 -0.14 0.07 0.09 -0.19 0.11 -0.04 -0.06zm0.28 0.12l0 0.13 -0.22 0 0 0.13 0.21 0 0 0.13 -0.21 0 0 0.13 0.22 0 0 0.13 -0.37 0 0 -0.64 0.37 0z"></path> <path class="fil0" d="M7.51 1.19l0 0.14c-0.02,0.08 -0.05,0.13 -0.11,0.17 -0.06,0.04 -0.12,0.06 -0.19,0.06 -0.09,0 -0.16,-0.03 -0.22,-0.1 -0.06,-0.06 -0.09,-0.14 -0.09,-0.23 0,-0.09 0.03,-0.17 0.09,-0.24 0.06,-0.06 0.13,-0.1 0.22,-0.1 0.1,0 0.19,0.04 0.25,0.11l-0.1 0.11c-0.03,-0.05 -0.08,-0.08 -0.14,-0.08 -0.05,0 -0.08,0.02 -0.12,0.06 -0.03,0.04 -0.05,0.09 -0.05,0.14 0,0.05 0.02,0.1 0.05,0.14 0.03,0.04 0.07,0.06 0.12,0.06 0.04,0 0.07,-0.01 0.1,-0.03 0.03,-0.02 0.04,-0.05 0.04,-0.09l-0.15 0 0 -0.11 0.3 0z"></path> <polygon class="fil0" points="7.78,0.9 7.78,1.55 7.63,1.55 7.63,0.9 "></polygon> <path class="fil0" d="M7.9 1.22c0,-0.09 0.03,-0.17 0.09,-0.24 0.06,-0.06 0.14,-0.1 0.23,-0.1 0.09,0 0.17,0.03 0.23,0.1 0.06,0.06 0.09,0.14 0.09,0.24 0,0.09 -0.03,0.17 -0.09,0.24 -0.06,0.06 -0.14,0.1 -0.23,0.1 -0.09,0 -0.17,-0.03 -0.23,-0.1 -0.06,-0.06 -0.09,-0.14 -0.09,-0.24zm0.16 0c0,0.03 0.01,0.06 0.02,0.09 0.01,0.03 0.03,0.05 0.05,0.07 0.03,0.02 0.06,0.03 0.1,0.03 0.05,0 0.1,-0.02 0.12,-0.06 0.03,-0.04 0.04,-0.08 0.04,-0.14 0,-0.05 -0.01,-0.1 -0.04,-0.13 -0.03,-0.04 -0.07,-0.06 -0.12,-0.06 -0.05,0 -0.09,0.02 -0.12,0.06 -0.03,0.04 -0.04,0.08 -0.04,0.13z"></path> </g> </g> <g> <g> <path class="fil1" d="M0.94 0.46l0 1.47c0.07,0.78 0.8,1.15 1.52,1.41 0.94,-0.35 1.47,-0.79 1.51,-1.41l-0 -1.47c-0.49,-0.18 -0.96,-0.27 -1.41,-0.28l-0.27 0c-0.47,0.02 -0.92,0.11 -1.35,0.28z"></path> <path class="fil2" d="M1.05 0.54l0 1.37c0.07,0.73 0.74,1.07 1.4,1.32 0.87,-0.33 1.36,-0.74 1.4,-1.32l-0 -1.37c-0.45,-0.16 -0.89,-0.25 -1.3,-0.26l-0.25 0c-0.43,0.01 -0.85,0.11 -1.25,0.26z"></path> <path class="fil3" d="M1.1 0.58l0 1.33c0.07,0.71 0.72,1.04 1.36,1.28 0.85,-0.32 1.32,-0.72 1.36,-1.28l-0 -1.33c-0.44,-0.16 -0.86,-0.24 -1.26,-0.26l-0.24 0c-0.42,0.01 -0.83,0.1 -1.22,0.26z"></path> <path class="fil1" d="M1.17 0.65l0 1.26c0.06,0.67 0.68,0.98 1.28,1.2 0.8,-0.3 1.25,-0.68 1.28,-1.2l-0 -1.26c-0.41,-0.15 -0.81,-0.23 -1.19,-0.24l-0.23 0c-0.4,0.01 -0.78,0.1 -1.15,0.24z"></path> </g> <g> <path class="fil4" d="M1.93 1.08c0.01,0.28 0.25,0.44 0.5,0.53 0.21,0.09 0.32,0.2 0.32,0.33 -0,0.33 -0.65,0.25 -0.78,-0 -0.12,-0.19 -0.12,-0.41 0,-0.58l-0.07 -0.12c-0.14,0.14 -0.22,0.4 -0.08,0.7 0.25,0.47 1.09,0.38 1.08,0 0.01,-0.19 -0.17,-0.35 -0.41,-0.45 -0.28,-0.09 -0.39,-0.24 -0.38,-0.41 0.01,-0.32 0.58,-0.38 0.72,-0.08 0.04,-0.04 0.08,-0.08 0.12,-0.11 -0.36,-0.38 -0.99,-0.19 -1.01,0.19z"></path> <path class="fil4" d="M2.18 1.22c0.24,-0.09 0.48,-0.03 0.7,0.2l0.13 -0.13c-0.26,-0.22 -0.56,-0.26 -0.87,-0.2 -0.01,0.05 0.01,0.09 0.03,0.12z"></path> <path class="fil4" d="M3.01 1.74c0,0.11 0,0.22 0,0.33 -0.18,0.16 -0.37,0.3 -0.57,0.41l0.08 0.07c0.24,-0.13 0.47,-0.28 0.64,-0.47l-0.01 -0.43 -0.32 0c0.03,0.04 0.06,0.07 0.07,0.09 0.04,0 0.07,0 0.11,0z"></path> <path class="fil2" d="M3.19 2.37c-0.29,0.03 -0.53,0.14 -0.73,0.32 -0.2,-0.19 -0.46,-0.29 -0.74,-0.32l-0.03 0.05c0.29,0.03 0.55,0.14 0.77,0.33 0.23,-0.19 0.49,-0.32 0.77,-0.33l-0.04 -0.05z"></path> <path class="fil2" d="M3.25 2.45c-0.33,0.03 -0.59,0.16 -0.79,0.35 -0.25,-0.22 -0.51,-0.33 -0.79,-0.35l-0.03 0.05c0.25,0.02 0.51,0.1 0.78,0.33l0.09 -0c0.22,-0.18 0.47,-0.3 0.78,-0.32l-0.03 -0.05z"></path> </g> </g> </g> <rect class="fil5" x="0" y="-0" width="12.3" height="3.51"></rect> </g> </svg>